<svg xmlns="http://www.w3.org/2000/svg" viewBox="0 0 495 429" width="495" height="429" role="img" aria-label="Language Stack" font-family="ui-sans-serif,-apple-system,Segoe UI,Helvetica,Arial,sans-serif"><text x="247.5" y="25" text-anchor="middle" font-size="15" font-weight="700" fill="#1f2328">Language Stack</text><g transform="translate(231.5,239.0)"><polygon points="0.0,-162.0 154.1,-50.1 95.2,131.1 -95.2,131.1 -154.1,-50.1" fill="none" stroke="#d0d7de" opacity="0.85"/><polygon points="0.0,-121.5 115.6,-37.5 71.4,98.3 -71.4,98.3 -115.6,-37.5" fill="none" stroke="#d0d7de" opacity="0.72"/><polygon points="0.0,-81.0 77.0,-25.0 47.6,65.5 -47.6,65.5 -77.0,-25.0" fill="none" stroke="#d0d7de" opacity="0.60"/><polygon points="0.0,-40.5 38.5,-12.5 23.8,32.8 -23.8,32.8 -38.5,-12.5" fill="none" stroke="#d0d7de" opacity="0.47"/><line x1="0" y1="0" x2="0.0" y2="-162.0" stroke="#e6eaef"/><line x1="0" y1="0" x2="154.1" y2="-50.1" stroke="#e6eaef"/><line x1="0" y1="0" x2="95.2" y2="131.1" stroke="#e6eaef"/><line x1="0" y1="0" x2="-95.2" y2="131.1" stroke="#e6eaef"/><line x1="0" y1="0" x2="-154.1" y2="-50.1" stroke="#e6eaef"/><polygon points="0.0,-145.8 135.6,-44.1 78.1,107.5 -76.2,104.8 -69.3,-22.5" fill="#1F6FEB" fill-opacity="0.22" stroke="#0969DA" stroke-width="2.5" stroke-linejoin="round"/><circle cx="0.0" cy="-145.8" r="3.6" fill="#0969DA"/><circle cx="135.6" cy="-44.1" r="3.6" fill="#0969DA"/><circle cx="78.1" cy="107.5" r="3.6" fill="#0969DA"/><circle cx="-76.2" cy="104.8" r="3.6" fill="#0969DA"/><circle cx="-69.3" cy="-22.5" r="3.6" fill="#0969DA"/><text x="0.0" y="-187.0" text-anchor="middle" font-size="13" font-weight="600" fill="#1f2328">Python</text><text x="0.0" y="-172.0" text-anchor="middle" font-size="11" fill="#57606a">90</text><text x="173.1" y="-61.2" text-anchor="start" font-size="13" font-weight="600" fill="#1f2328">JavaScript</text><text x="173.1" y="-46.2" text-anchor="start" font-size="11" fill="#57606a">88</text><text x="107.0" y="161.2" text-anchor="start" font-size="13" font-weight="600" fill="#1f2328">TypeScript</text><text x="107.0" y="176.2" text-anchor="start" font-size="11" fill="#57606a">82</text><text x="-107.0" y="161.2" text-anchor="end" font-size="13" font-weight="600" fill="#1f2328">SQL</text><text x="-107.0" y="176.2" text-anchor="end" font-size="11" fill="#57606a">80</text><text x="-173.1" y="-61.2" text-anchor="end" font-size="13" font-weight="600" fill="#1f2328">Kotlin</text><text x="-173.1" y="-46.2" text-anchor="end" font-size="11" fill="#57606a">45</text></g></svg>